<svg xmlns="http://www.w3.org/2000/svg" xmlns:xlink="http://www.w3.org/1999/xlink" width="1024" zoomAndPan="magnify" viewBox="0 0 768 576" height="768" preserveAspectRatio="xMidYMid meet" version="1.0"><defs><clipPath id="73880b9ef0"><path d="M 604 112 L 653.984375 112 L 653.984375 162 L 604 162 Z M 604 112 " clip-rule="nonzero"/></clipPath><clipPath id="e40ceed029"><path d="M 116 108 L 565 108 L 565 557.15625 L 116 557.15625 Z M 116 108 " clip-rule="nonzero"/></clipPath></defs><rect x="-76.8" width="921.6" fill="#ffffff" y="-57.6" height="691.2" fill-opacity="1"/><rect x="-76.8" width="921.6" fill="#ffffff" y="-57.6" height="691.2" fill-opacity="1"/><rect x="-76.8" width="921.6" fill="#ffffff" y="-57.6" height="691.2" fill-opacity="1"/><path fill="#f5b97d" d="M 632.335938 321.351562 C 628.425781 321.925781 624.429688 322.230469 620.359375 322.230469 C 582.890625 322.230469 551.179688 297.726562 540.304688 263.882812 C 538.445312 258.097656 533.71875 253.640625 527.75 252.503906 C 465.523438 240.660156 418.472656 186.050781 418.472656 120.398438 C 418.472656 92.824219 426.796875 67.210938 441.039062 45.878906 C 444.425781 40.804688 441.601562 34.050781 435.617188 32.863281 C 419.1875 29.613281 402.207031 27.890625 384.824219 27.890625 C 240.800781 27.890625 124.050781 144.609375 124.050781 288.589844 C 124.050781 432.566406 240.800781 549.289062 384.824219 549.289062 C 514.621094 549.289062 621.949219 454.832031 642.136719 330.742188 C 643.054688 325.109375 637.980469 320.523438 632.335938 321.351562 Z M 632.335938 321.351562 " fill-opacity="1" fill-rule="nonzero"/><path fill="#cd916e" d="M 300.703125 204.496094 C 300.703125 205.597656 300.648438 206.695312 300.539062 207.789062 C 300.433594 208.886719 300.269531 209.976562 300.054688 211.054688 C 299.839844 212.136719 299.574219 213.203125 299.253906 214.257812 C 298.933594 215.3125 298.5625 216.347656 298.140625 217.367188 C 297.71875 218.382812 297.25 219.378906 296.730469 220.347656 C 296.210938 221.320312 295.644531 222.265625 295.03125 223.179688 C 294.417969 224.097656 293.765625 224.980469 293.066406 225.832031 C 292.367188 226.683594 291.628906 227.5 290.847656 228.277344 C 290.070312 229.054688 289.253906 229.792969 288.402344 230.492188 C 287.550781 231.191406 286.664062 231.847656 285.75 232.460938 C 284.832031 233.070312 283.890625 233.636719 282.917969 234.15625 C 281.945312 234.675781 280.953125 235.144531 279.933594 235.566406 C 278.914062 235.988281 277.878906 236.359375 276.824219 236.679688 C 275.769531 237 274.703125 237.265625 273.621094 237.480469 C 272.542969 237.695312 271.453125 237.859375 270.355469 237.964844 C 269.257812 238.074219 268.160156 238.128906 267.058594 238.128906 C 265.957031 238.128906 264.855469 238.074219 263.761719 237.964844 C 262.664062 237.859375 261.574219 237.695312 260.496094 237.480469 C 259.414062 237.265625 258.347656 237 257.292969 236.679688 C 256.238281 236.359375 255.203125 235.988281 254.183594 235.566406 C 253.164062 235.144531 252.171875 234.675781 251.199219 234.15625 C 250.226562 233.636719 249.285156 233.070312 248.367188 232.460938 C 247.449219 231.847656 246.566406 231.191406 245.714844 230.492188 C 244.863281 229.792969 244.046875 229.054688 243.269531 228.277344 C 242.488281 227.5 241.75 226.683594 241.050781 225.832031 C 240.351562 224.980469 239.695312 224.097656 239.085938 223.179688 C 238.472656 222.265625 237.90625 221.320312 237.386719 220.347656 C 236.867188 219.378906 236.398438 218.382812 235.976562 217.367188 C 235.554688 216.347656 235.183594 215.3125 234.863281 214.257812 C 234.542969 213.203125 234.277344 212.136719 234.0625 211.054688 C 233.847656 209.976562 233.683594 208.886719 233.578125 207.789062 C 233.46875 206.695312 233.414062 205.597656 233.414062 204.496094 C 233.414062 203.394531 233.46875 202.292969 233.578125 201.199219 C 233.683594 200.101562 233.847656 199.011719 234.0625 197.933594 C 234.277344 196.851562 234.542969 195.785156 234.863281 194.730469 C 235.183594 193.675781 235.554688 192.640625 235.976562 191.621094 C 236.398438 190.605469 236.867188 189.609375 237.386719 188.640625 C 237.90625 187.667969 238.472656 186.722656 239.085938 185.808594 C 239.695312 184.890625 240.351562 184.007812 241.050781 183.15625 C 241.75 182.304688 242.488281 181.492188 243.269531 180.710938 C 244.046875 179.933594 244.863281 179.195312 245.714844 178.496094 C 246.566406 177.796875 247.449219 177.140625 248.367188 176.527344 C 249.285156 175.917969 250.226562 175.351562 251.199219 174.832031 C 252.171875 174.3125 253.164062 173.84375 254.183594 173.421875 C 255.203125 173 256.238281 172.628906 257.292969 172.308594 C 258.347656 171.988281 259.414062 171.722656 260.496094 171.507812 C 261.574219 171.292969 262.664062 171.128906 263.761719 171.023438 C 264.855469 170.914062 265.957031 170.859375 267.058594 170.859375 C 268.160156 170.859375 269.257812 170.914062 270.355469 171.023438 C 271.453125 171.128906 272.542969 171.292969 273.621094 171.507812 C 274.703125 171.722656 275.769531 171.988281 276.824219 172.308594 C 277.878906 172.628906 278.914062 173 279.933594 173.421875 C 280.953125 173.84375 281.945312 174.3125 282.917969 174.832031 C 283.890625 175.351562 284.832031 175.917969 285.75 176.527344 C 286.664062 177.140625 287.550781 177.796875 288.402344 178.496094 C 289.253906 179.195312 290.070312 179.933594 290.847656 180.710938 C 291.628906 181.492188 292.367188 182.304688 293.066406 183.15625 C 293.765625 184.007812 294.417969 184.890625 295.03125 185.808594 C 295.644531 186.722656 296.210938 187.667969 296.730469 188.640625 C 297.25 189.609375 297.71875 190.605469 298.140625 191.621094 C 298.5625 192.640625 298.933594 193.675781 299.253906 194.730469 C 299.574219 195.785156 299.839844 196.851562 300.054688 197.933594 C 300.269531 199.011719 300.433594 200.101562 300.539062 201.199219 C 300.648438 202.292969 300.703125 203.394531 300.703125 204.496094 Z M 300.703125 204.496094 " fill-opacity="1" fill-rule="nonzero"/><path fill="#cd916e" d="M 309.117188 372.683594 C 309.117188 373.511719 309.078125 374.335938 308.996094 375.15625 C 308.914062 375.980469 308.792969 376.796875 308.632812 377.605469 C 308.472656 378.417969 308.269531 379.21875 308.03125 380.007812 C 307.789062 380.796875 307.511719 381.574219 307.195312 382.339844 C 306.878906 383.101562 306.527344 383.847656 306.136719 384.578125 C 305.746094 385.304688 305.324219 386.015625 304.863281 386.703125 C 304.40625 387.386719 303.914062 388.050781 303.386719 388.691406 C 302.863281 389.328125 302.308594 389.941406 301.726562 390.523438 C 301.140625 391.109375 300.527344 391.664062 299.890625 392.1875 C 299.25 392.710938 298.585938 393.203125 297.902344 393.664062 C 297.214844 394.121094 296.503906 394.546875 295.777344 394.933594 C 295.046875 395.324219 294.300781 395.679688 293.539062 395.992188 C 292.773438 396.308594 291.996094 396.589844 291.207031 396.828125 C 290.414062 397.066406 289.613281 397.269531 288.804688 397.429688 C 287.992188 397.589844 287.175781 397.710938 286.351562 397.792969 C 285.53125 397.875 284.707031 397.914062 283.878906 397.914062 C 283.050781 397.914062 282.226562 397.875 281.40625 397.792969 C 280.582031 397.710938 279.765625 397.589844 278.957031 397.429688 C 278.144531 397.269531 277.34375 397.066406 276.554688 396.828125 C 275.761719 396.589844 274.984375 396.308594 274.222656 395.992188 C 273.457031 395.679688 272.710938 395.324219 271.980469 394.933594 C 271.253906 394.546875 270.546875 394.121094 269.859375 393.664062 C 269.171875 393.203125 268.507812 392.710938 267.867188 392.1875 C 267.230469 391.664062 266.617188 391.109375 266.035156 390.523438 C 265.449219 389.941406 264.894531 389.328125 264.371094 388.691406 C 263.84375 388.050781 263.355469 387.386719 262.894531 386.703125 C 262.433594 386.015625 262.011719 385.304688 261.621094 384.578125 C 261.230469 383.847656 260.878906 383.101562 260.5625 382.339844 C 260.246094 381.574219 259.96875 380.796875 259.726562 380.007812 C 259.488281 379.21875 259.289062 378.417969 259.125 377.605469 C 258.964844 376.796875 258.84375 375.980469 258.761719 375.15625 C 258.683594 374.335938 258.640625 373.511719 258.640625 372.683594 C 258.640625 371.859375 258.683594 371.035156 258.761719 370.210938 C 258.84375 369.386719 258.964844 368.570312 259.125 367.761719 C 259.289062 366.949219 259.488281 366.152344 259.726562 365.359375 C 259.96875 364.570312 260.246094 363.792969 260.5625 363.027344 C 260.878906 362.265625 261.230469 361.519531 261.621094 360.789062 C 262.011719 360.0625 262.433594 359.351562 262.894531 358.667969 C 263.355469 357.980469 263.84375 357.316406 264.371094 356.675781 C 264.894531 356.039062 265.449219 355.425781 266.035156 354.84375 C 266.617188 354.257812 267.230469 353.703125 267.867188 353.179688 C 268.507812 352.65625 269.171875 352.164062 269.859375 351.707031 C 270.546875 351.246094 271.253906 350.820312 271.980469 350.433594 C 272.710938 350.042969 273.457031 349.691406 274.222656 349.375 C 274.984375 349.058594 275.761719 348.78125 276.554688 348.539062 C 277.34375 348.300781 278.144531 348.097656 278.957031 347.9375 C 279.765625 347.777344 280.582031 347.65625 281.40625 347.574219 C 282.226562 347.492188 283.050781 347.453125 283.878906 347.453125 C 284.707031 347.453125 285.53125 347.492188 286.351562 347.574219 C 287.175781 347.65625 287.992188 347.777344 288.804688 347.9375 C 289.613281 348.097656 290.414062 348.300781 291.207031 348.539062 C 291.996094 348.78125 292.773438 349.058594 293.539062 349.375 C 294.300781 349.691406 295.046875 350.042969 295.777344 350.433594 C 296.503906 350.820312 297.214844 351.246094 297.902344 351.707031 C 298.585938 352.164062 299.25 352.65625 299.890625 353.179688 C 300.527344 353.703125 301.140625 354.257812 301.726562 354.84375 C 302.308594 355.425781 302.863281 356.039062 303.386719 356.675781 C 303.914062 357.316406 304.40625 357.980469 304.863281 358.667969 C 305.324219 359.351562 305.746094 360.0625 306.136719 360.789062 C 306.527344 361.519531 306.878906 362.265625 307.195312 363.027344 C 307.511719 363.792969 307.789062 364.570312 308.03125 365.359375 C 308.269531 366.152344 308.472656 366.949219 308.632812 367.761719 C 308.792969 368.570312 308.914062 369.386719 308.996094 370.210938 C 309.078125 371.035156 309.117188 371.859375 309.117188 372.683594 Z M 309.117188 372.683594 " fill-opacity="1" fill-rule="nonzero"/><path fill="#f5b97d" d="M 493.148438 96.054688 L 490.734375 110.53125 C 488.75 122.429688 495.46875 134.066406 506.765625 138.300781 L 528.132812 146.3125 C 542.246094 151.601562 557.820312 143.425781 561.476562 128.808594 L 569.089844 98.351562 C 573.835938 79.371094 556.101562 62.445312 537.355469 68.066406 L 510.785156 76.035156 C 501.570312 78.800781 494.730469 86.566406 493.148438 96.054688 Z M 493.148438 96.054688 " fill-opacity="1" fill-rule="nonzero"/><path fill="#f5b97d" d="M 578.300781 187.675781 L 568.140625 192.753906 C 560.171875 196.734375 556.691406 206.238281 560.199219 214.421875 L 568.375 233.488281 C 573.324219 245.03125 588.722656 247.277344 596.761719 237.628906 L 609.910156 221.855469 C 616.078125 214.460938 614.785156 203.410156 607.082031 197.632812 L 595.917969 189.261719 C 590.820312 185.441406 584 184.824219 578.300781 187.675781 Z M 578.300781 187.675781 " fill-opacity="1" fill-rule="nonzero"/><path fill="#f5b97d" d="M 645.589844 137.214844 C 645.589844 137.765625 645.566406 138.316406 645.511719 138.863281 C 645.457031 139.414062 645.375 139.957031 645.269531 140.496094 C 645.160156 141.035156 645.027344 141.570312 644.867188 142.097656 C 644.707031 142.625 644.523438 143.140625 644.3125 143.652344 C 644.101562 144.160156 643.863281 144.65625 643.605469 145.144531 C 643.34375 145.628906 643.0625 146.101562 642.757812 146.558594 C 642.449219 147.015625 642.121094 147.457031 641.773438 147.882812 C 641.421875 148.308594 641.054688 148.71875 640.664062 149.105469 C 640.273438 149.496094 639.867188 149.867188 639.441406 150.214844 C 639.015625 150.566406 638.574219 150.894531 638.117188 151.199219 C 637.65625 151.503906 637.183594 151.789062 636.699219 152.046875 C 636.214844 152.308594 635.714844 152.542969 635.207031 152.753906 C 634.699219 152.964844 634.179688 153.148438 633.652344 153.308594 C 633.125 153.46875 632.59375 153.601562 632.050781 153.710938 C 631.511719 153.816406 630.96875 153.898438 630.417969 153.953125 C 629.871094 154.003906 629.320312 154.03125 628.769531 154.03125 C 628.21875 154.03125 627.667969 154.003906 627.121094 153.953125 C 626.574219 153.898438 626.027344 153.816406 625.488281 153.710938 C 624.949219 153.601562 624.414062 153.46875 623.886719 153.308594 C 623.359375 153.148438 622.839844 152.964844 622.332031 152.753906 C 621.824219 152.542969 621.324219 152.308594 620.839844 152.046875 C 620.355469 151.789062 619.882812 151.503906 619.425781 151.199219 C 618.964844 150.894531 618.523438 150.566406 618.097656 150.214844 C 617.671875 149.867188 617.265625 149.496094 616.875 149.105469 C 616.484375 148.71875 616.117188 148.308594 615.765625 147.882812 C 615.417969 147.457031 615.089844 147.015625 614.78125 146.558594 C 614.476562 146.101562 614.195312 145.628906 613.933594 145.144531 C 613.675781 144.65625 613.4375 144.160156 613.230469 143.652344 C 613.019531 143.140625 612.832031 142.625 612.671875 142.097656 C 612.511719 141.570312 612.378906 141.035156 612.269531 140.496094 C 612.164062 139.957031 612.082031 139.414062 612.027344 138.863281 C 611.976562 138.316406 611.949219 137.765625 611.949219 137.214844 C 611.949219 136.664062 611.976562 136.117188 612.027344 135.566406 C 612.082031 135.019531 612.164062 134.476562 612.269531 133.933594 C 612.378906 133.394531 612.511719 132.859375 612.671875 132.335938 C 612.832031 131.808594 613.019531 131.289062 613.230469 130.78125 C 613.4375 130.269531 613.675781 129.773438 613.933594 129.289062 C 614.195312 128.800781 614.476562 128.332031 614.78125 127.871094 C 615.089844 127.414062 615.417969 126.972656 615.765625 126.546875 C 616.117188 126.121094 616.484375 125.714844 616.875 125.324219 C 617.265625 124.933594 617.671875 124.566406 618.097656 124.214844 C 618.523438 123.867188 618.964844 123.539062 619.425781 123.234375 C 619.882812 122.925781 620.355469 122.644531 620.839844 122.382812 C 621.324219 122.125 621.824219 121.890625 622.332031 121.679688 C 622.839844 121.46875 623.359375 121.28125 623.886719 121.121094 C 624.414062 120.964844 624.949219 120.828125 625.488281 120.722656 C 626.027344 120.613281 626.574219 120.535156 627.121094 120.480469 C 627.667969 120.425781 628.21875 120.398438 628.769531 120.398438 C 629.320312 120.398438 629.871094 120.425781 630.417969 120.480469 C 630.96875 120.535156 631.511719 120.613281 632.050781 120.722656 C 632.59375 120.828125 633.125 120.964844 633.652344 121.121094 C 634.179688 121.28125 634.699219 121.46875 635.207031 121.679688 C 635.714844 121.890625 636.214844 122.125 636.699219 122.382812 C 637.183594 122.644531 637.65625 122.925781 638.117188 123.234375 C 638.574219 123.539062 639.015625 123.867188 639.441406 124.214844 C 639.867188 124.566406 640.273438 124.933594 640.664062 125.324219 C 641.054688 125.714844 641.421875 126.121094 641.773438 126.546875 C 642.121094 126.972656 642.449219 127.414062 642.757812 127.871094 C 643.0625 128.332031 643.34375 128.800781 643.605469 129.289062 C 643.863281 129.773438 644.101562 130.269531 644.3125 130.78125 C 644.523438 131.289062 644.707031 131.808594 644.867188 132.335938 C 645.027344 132.859375 645.160156 133.394531 645.269531 133.933594 C 645.375 134.476562 645.457031 135.019531 645.511719 135.566406 C 645.566406 136.117188 645.589844 136.664062 645.589844 137.214844 Z M 645.589844 137.214844 " fill-opacity="1" fill-rule="nonzero"/><path fill="#e3aa75" d="M 416.367188 517.75 C 272.347656 517.75 155.597656 401.035156 155.597656 257.054688 C 155.597656 193.09375 178.675781 134.546875 216.910156 89.1875 C 160.148438 137.007812 124.050781 208.570312 124.050781 288.589844 C 124.050781 432.566406 240.804688 549.289062 384.824219 549.289062 C 464.914062 549.289062 536.417969 513.292969 584.207031 456.59375 C 538.882812 494.753906 480.371094 517.75 416.367188 517.75 Z M 416.367188 517.75 " fill-opacity="1" fill-rule="nonzero"/><path fill="#e3aa75" d="M 531.875 126.792969 C 517.765625 121.503906 509.371094 106.96875 511.851562 92.109375 L 514.726562 74.855469 L 510.789062 76.039062 C 501.570312 78.800781 494.730469 86.566406 493.148438 96.054688 L 490.734375 110.53125 C 488.75 122.429688 495.46875 134.066406 506.765625 138.300781 L 528.132812 146.3125 C 539.464844 150.558594 551.628906 146.039062 557.921875 136.558594 Z M 531.875 126.792969 " fill-opacity="1" fill-rule="nonzero"/><path fill="#e3aa75" d="M 586.324219 222.652344 L 577.066406 201.058594 C 575.328125 197 575.183594 192.683594 576.234375 188.707031 L 568.140625 192.75 C 560.171875 196.734375 556.691406 206.234375 560.199219 214.421875 L 568.375 233.484375 C 573.324219 245.027344 588.722656 247.277344 596.761719 237.628906 L 600.03125 233.707031 C 594.246094 232.527344 588.960938 228.808594 586.324219 222.652344 Z M 586.324219 222.652344 " fill-opacity="1" fill-rule="nonzero"/><path fill="#b67f5f" d="M 284.933594 220.261719 C 266.347656 220.261719 251.285156 205.203125 251.285156 186.625 C 251.285156 181.972656 252.230469 177.539062 253.9375 173.511719 C 241.871094 178.621094 233.410156 190.570312 233.410156 204.496094 C 233.410156 223.070312 248.472656 238.132812 267.054688 238.132812 C 280.984375 238.132812 292.9375 229.667969 298.050781 217.609375 C 294.015625 219.316406 289.585938 220.261719 284.933594 220.261719 Z M 284.933594 220.261719 " fill-opacity="1" fill-rule="nonzero"/><path fill="#b67f5f" d="M 297.023438 384.777344 C 283.085938 384.777344 271.789062 373.480469 271.789062 359.546875 C 271.789062 355.988281 272.542969 352.613281 273.871094 349.542969 C 264.917969 353.417969 258.644531 362.3125 258.644531 372.6875 C 258.644531 386.621094 269.941406 397.914062 283.878906 397.914062 C 294.257812 397.914062 303.15625 391.644531 307.03125 382.691406 C 303.960938 384.019531 300.582031 384.777344 297.023438 384.777344 Z M 297.023438 384.777344 " fill-opacity="1" fill-rule="nonzero"/><path fill="#cd916e" d="M 477.355469 397.914062 C 477.355469 399.015625 477.300781 400.113281 477.191406 401.210938 C 477.085938 402.304688 476.921875 403.394531 476.707031 404.476562 C 476.492188 405.554688 476.226562 406.621094 475.90625 407.675781 C 475.585938 408.730469 475.214844 409.765625 474.792969 410.785156 C 474.371094 411.800781 473.902344 412.796875 473.382812 413.769531 C 472.863281 414.738281 472.296875 415.683594 471.683594 416.597656 C 471.070312 417.515625 470.417969 418.398438 469.71875 419.25 C 469.019531 420.101562 468.28125 420.917969 467.5 421.695312 C 466.722656 422.476562 465.90625 423.214844 465.054688 423.914062 C 464.203125 424.613281 463.316406 425.265625 462.402344 425.878906 C 461.484375 426.492188 460.542969 427.058594 459.570312 427.574219 C 458.597656 428.09375 457.601562 428.566406 456.585938 428.988281 C 455.566406 429.410156 454.53125 429.78125 453.476562 430.097656 C 452.421875 430.417969 451.355469 430.6875 450.273438 430.902344 C 449.195312 431.117188 448.105469 431.277344 447.007812 431.386719 C 445.910156 431.492188 444.8125 431.546875 443.710938 431.546875 C 442.609375 431.546875 441.507812 431.492188 440.414062 431.386719 C 439.316406 431.277344 438.226562 431.117188 437.148438 430.902344 C 436.066406 430.6875 435 430.417969 433.945312 430.097656 C 432.890625 429.78125 431.855469 429.410156 430.835938 428.988281 C 429.816406 428.566406 428.824219 428.09375 427.851562 427.574219 C 426.878906 427.058594 425.9375 426.492188 425.019531 425.878906 C 424.101562 425.265625 423.21875 424.613281 422.367188 423.914062 C 421.515625 423.214844 420.699219 422.476562 419.921875 421.695312 C 419.140625 420.917969 418.402344 420.101562 417.703125 419.25 C 417.003906 418.398438 416.347656 417.515625 415.738281 416.597656 C 415.125 415.683594 414.558594 414.738281 414.039062 413.769531 C 413.519531 412.796875 413.050781 411.800781 412.628906 410.785156 C 412.207031 409.765625 411.835938 408.730469 411.515625 407.675781 C 411.195312 406.621094 410.929688 405.554688 410.714844 404.476562 C 410.5 403.394531 410.335938 402.304688 410.230469 401.210938 C 410.121094 400.113281 410.066406 399.015625 410.066406 397.914062 C 410.066406 396.8125 410.121094 395.714844 410.230469 394.617188 C 410.335938 393.519531 410.5 392.433594 410.714844 391.351562 C 410.929688 390.273438 411.195312 389.203125 411.515625 388.148438 C 411.835938 387.097656 412.207031 386.058594 412.628906 385.042969 C 413.050781 384.023438 413.519531 383.03125 414.039062 382.058594 C 414.558594 381.085938 415.125 380.144531 415.738281 379.226562 C 416.347656 378.3125 417.003906 377.429688 417.703125 376.578125 C 418.402344 375.726562 419.140625 374.910156 419.921875 374.128906 C 420.699219 373.351562 421.515625 372.613281 422.367188 371.914062 C 423.21875 371.214844 424.101562 370.558594 425.019531 369.949219 C 425.9375 369.335938 426.878906 368.769531 427.851562 368.25 C 428.824219 367.730469 429.816406 367.261719 430.835938 366.839844 C 431.855469 366.417969 432.890625 366.046875 433.945312 365.726562 C 435 365.40625 436.066406 365.140625 437.148438 364.925781 C 438.226562 364.710938 439.316406 364.550781 440.414062 364.441406 C 441.507812 364.332031 442.609375 364.28125 443.710938 364.28125 C 444.8125 364.28125 445.910156 364.332031 447.007812 364.441406 C 448.105469 364.550781 449.195312 364.710938 450.273438 364.925781 C 451.355469 365.140625 452.421875 365.40625 453.476562 365.726562 C 454.53125 366.046875 455.566406 366.417969 456.585938 366.839844 C 457.605469 367.261719 458.597656 367.730469 459.570312 368.25 C 460.542969 368.769531 461.484375 369.335938 462.402344 369.949219 C 463.316406 370.558594 464.203125 371.214844 465.054688 371.914062 C 465.90625 372.613281 466.722656 373.351562 467.5 374.128906 C 468.28125 374.910156 469.019531 375.726562 469.71875 376.578125 C 470.417969 377.429688 471.070312 378.3125 471.683594 379.226562 C 472.296875 380.144531 472.863281 381.085938 473.382812 382.058594 C 473.902344 383.03125 474.371094 384.023438 474.792969 385.042969 C 475.214844 386.058594 475.585938 387.097656 475.90625 388.148438 C 476.226562 389.203125 476.492188 390.273438 476.707031 391.351562 C 476.921875 392.433594 477.085938 393.519531 477.191406 394.617188 C 477.300781 395.714844 477.355469 396.8125 477.355469 397.914062 Z M 477.355469 397.914062 " fill-opacity="1" fill-rule="nonzero"/><path fill="#b67f5f" d="M 461.582031 413.683594 C 443 413.683594 427.933594 398.621094 427.933594 380.042969 C 427.933594 375.390625 428.882812 370.960938 430.589844 366.929688 C 418.523438 372.042969 410.058594 383.988281 410.058594 397.914062 C 410.058594 416.492188 425.125 431.554688 443.707031 431.554688 C 457.636719 431.554688 469.585938 423.089844 474.699219 411.027344 C 470.667969 412.734375 466.238281 413.683594 461.582031 413.683594 Z M 461.582031 413.683594 " fill-opacity="1" fill-rule="nonzero"/><path fill="#cd916e" d="M 392.878906 246.542969 C 392.878906 247.09375 392.851562 247.640625 392.796875 248.191406 C 392.746094 248.738281 392.664062 249.28125 392.554688 249.824219 C 392.449219 250.363281 392.316406 250.898438 392.15625 251.421875 C 391.996094 251.949219 391.808594 252.46875 391.597656 252.976562 C 391.386719 253.484375 391.152344 253.984375 390.894531 254.46875 C 390.632812 254.953125 390.351562 255.425781 390.042969 255.886719 C 389.738281 256.34375 389.410156 256.785156 389.0625 257.210938 C 388.710938 257.636719 388.34375 258.042969 387.953125 258.433594 C 387.5625 258.824219 387.15625 259.191406 386.730469 259.542969 C 386.304688 259.890625 385.863281 260.21875 385.402344 260.523438 C 384.945312 260.832031 384.472656 261.113281 383.988281 261.375 C 383.5 261.632812 383.003906 261.867188 382.496094 262.078125 C 381.984375 262.289062 381.46875 262.476562 380.941406 262.632812 C 380.414062 262.792969 379.878906 262.929688 379.339844 263.035156 C 378.800781 263.144531 378.253906 263.222656 377.707031 263.277344 C 377.15625 263.332031 376.609375 263.359375 376.058594 263.359375 C 375.507812 263.359375 374.957031 263.332031 374.410156 263.277344 C 373.859375 263.222656 373.316406 263.144531 372.777344 263.035156 C 372.234375 262.929688 371.703125 262.792969 371.175781 262.632812 C 370.648438 262.476562 370.128906 262.289062 369.621094 262.078125 C 369.109375 261.867188 368.613281 261.632812 368.128906 261.375 C 367.640625 261.113281 367.171875 260.832031 366.710938 260.523438 C 366.253906 260.21875 365.8125 259.890625 365.386719 259.542969 C 364.960938 259.191406 364.550781 258.824219 364.164062 258.433594 C 363.773438 258.042969 363.402344 257.636719 363.054688 257.210938 C 362.703125 256.785156 362.375 256.34375 362.070312 255.886719 C 361.765625 255.425781 361.480469 254.953125 361.222656 254.46875 C 360.960938 253.984375 360.726562 253.484375 360.515625 252.976562 C 360.304688 252.46875 360.121094 251.949219 359.960938 251.421875 C 359.800781 250.898438 359.667969 250.363281 359.558594 249.824219 C 359.453125 249.28125 359.371094 248.738281 359.316406 248.191406 C 359.261719 247.640625 359.234375 247.09375 359.234375 246.542969 C 359.234375 245.992188 359.261719 245.441406 359.316406 244.894531 C 359.371094 244.34375 359.453125 243.800781 359.558594 243.261719 C 359.667969 242.722656 359.800781 242.1875 359.960938 241.660156 C 360.121094 241.132812 360.304688 240.613281 360.515625 240.105469 C 360.726562 239.597656 360.960938 239.101562 361.222656 238.613281 C 361.480469 238.128906 361.765625 237.65625 362.070312 237.199219 C 362.375 236.742188 362.703125 236.300781 363.054688 235.875 C 363.402344 235.449219 363.773438 235.039062 364.164062 234.652344 C 364.550781 234.261719 364.960938 233.890625 365.386719 233.542969 C 365.8125 233.191406 366.253906 232.863281 366.710938 232.558594 C 367.171875 232.253906 367.640625 231.96875 368.128906 231.710938 C 368.613281 231.449219 369.109375 231.214844 369.621094 231.003906 C 370.128906 230.792969 370.648438 230.609375 371.175781 230.449219 C 371.703125 230.289062 372.234375 230.15625 372.777344 230.046875 C 373.316406 229.941406 373.859375 229.859375 374.410156 229.804688 C 374.957031 229.75 375.507812 229.726562 376.058594 229.726562 C 376.609375 229.726562 377.15625 229.75 377.707031 229.804688 C 378.253906 229.859375 378.800781 229.941406 379.339844 230.046875 C 379.878906 230.15625 380.414062 230.289062 380.941406 230.449219 C 381.46875 230.609375 381.984375 230.792969 382.496094 231.003906 C 383.003906 231.214844 383.5 231.449219 383.988281 231.710938 C 384.472656 231.96875 384.945312 232.253906 385.402344 232.558594 C 385.863281 232.863281 386.304688 233.191406 386.730469 233.542969 C 387.15625 233.890625 387.5625 234.261719 387.953125 234.652344 C 388.34375 235.039062 388.710938 235.449219 389.0625 235.875 C 389.410156 236.300781 389.738281 236.742188 390.042969 237.199219 C 390.351562 237.65625 390.632812 238.128906 390.894531 238.613281 C 391.152344 239.101562 391.386719 239.597656 391.597656 240.105469 C 391.808594 240.613281 391.996094 241.132812 392.15625 241.660156 C 392.316406 242.1875 392.449219 242.722656 392.554688 243.261719 C 392.664062 243.800781 392.746094 244.34375 392.796875 244.894531 C 392.851562 245.441406 392.878906 245.992188 392.878906 246.542969 Z M 392.878906 246.542969 " fill-opacity="1" fill-rule="nonzero"/><path fill="#000000" d="M 267.054688 162.988281 C 244.164062 162.988281 225.539062 181.605469 225.539062 204.492188 C 225.539062 227.378906 244.164062 246 267.054688 246 C 289.949219 246 308.574219 227.378906 308.574219 204.492188 C 308.574219 181.605469 289.949219 162.988281 267.054688 162.988281 Z M 267.054688 230.265625 C 252.84375 230.265625 241.277344 218.703125 241.277344 204.496094 C 241.277344 190.285156 252.84375 178.722656 267.054688 178.722656 C 281.269531 178.722656 292.835938 190.285156 292.835938 204.496094 C 292.835938 218.703125 281.269531 230.265625 267.054688 230.265625 Z M 267.054688 230.265625 " fill-opacity="1" fill-rule="nonzero"/><path fill="#000000" d="M 402.1875 397.914062 C 402.1875 420.800781 420.8125 439.421875 443.707031 439.421875 C 466.597656 439.421875 485.226562 420.800781 485.226562 397.914062 C 485.226562 375.03125 466.597656 356.410156 443.707031 356.410156 C 420.8125 356.410156 402.1875 375.027344 402.1875 397.914062 Z M 443.707031 372.144531 C 457.921875 372.144531 469.484375 383.707031 469.484375 397.914062 C 469.484375 412.125 457.921875 423.683594 443.707031 423.683594 C 429.496094 423.683594 417.929688 412.125 417.929688 397.914062 C 417.929688 383.707031 429.492188 372.144531 443.707031 372.144531 Z M 443.707031 372.144531 " fill-opacity="1" fill-rule="nonzero"/><path fill="#000000" d="M 283.878906 339.589844 C 265.625 339.589844 250.773438 354.4375 250.773438 372.6875 C 250.773438 390.9375 265.625 405.785156 283.878906 405.785156 C 302.132812 405.785156 316.984375 390.9375 316.984375 372.6875 C 316.984375 354.4375 302.132812 339.589844 283.878906 339.589844 Z M 283.878906 390.046875 C 274.304688 390.046875 266.515625 382.261719 266.515625 372.6875 C 266.515625 363.113281 274.304688 355.324219 283.878906 355.324219 C 293.453125 355.324219 301.246094 363.113281 301.246094 372.6875 C 301.246094 382.261719 293.453125 390.046875 283.878906 390.046875 Z M 283.878906 390.046875 " fill-opacity="1" fill-rule="nonzero"/><path fill="#000000" d="M 351.71875 246.542969 C 351.71875 260.15625 362.796875 271.230469 376.414062 271.230469 C 390.027344 271.230469 401.105469 260.152344 401.105469 246.542969 C 401.105469 232.929688 390.027344 221.855469 376.414062 221.855469 C 362.796875 221.855469 351.71875 232.929688 351.71875 246.542969 Z M 376.414062 237.589844 C 381.351562 237.589844 385.367188 241.605469 385.367188 246.542969 C 385.367188 251.476562 381.347656 255.492188 376.414062 255.492188 C 371.476562 255.492188 367.457031 251.476562 367.457031 246.542969 C 367.457031 241.605469 371.476562 237.589844 376.414062 237.589844 Z M 376.414062 237.589844 " fill-opacity="1" fill-rule="nonzero"/><path fill="#000000" d="M 536.246094 372.148438 C 537.429688 372.148438 538.628906 371.878906 539.757812 371.316406 C 543.648438 369.371094 545.222656 364.644531 543.277344 360.757812 L 534.867188 343.9375 C 532.921875 340.050781 528.195312 338.472656 524.308594 340.417969 C 520.421875 342.363281 518.84375 347.089844 520.789062 350.976562 L 529.199219 367.796875 C 530.582031 370.554688 533.359375 372.148438 536.246094 372.148438 Z M 536.246094 372.148438 " fill-opacity="1" fill-rule="nonzero"/><path fill="#000000" d="M 443.714844 321.6875 C 444.898438 321.6875 446.097656 321.421875 447.226562 320.855469 L 464.050781 312.445312 C 467.9375 310.503906 469.515625 305.777344 467.570312 301.890625 C 465.625 298.003906 460.902344 296.425781 457.011719 298.371094 L 440.1875 306.78125 C 436.300781 308.726562 434.722656 313.449219 436.667969 317.335938 C 438.046875 320.09375 440.824219 321.6875 443.714844 321.6875 Z M 443.714844 321.6875 " fill-opacity="1" fill-rule="nonzero"/><path fill="#000000" d="M 209.542969 300.519531 C 210.921875 303.273438 213.703125 304.867188 216.589844 304.867188 C 217.773438 304.867188 218.972656 304.601562 220.101562 304.035156 C 223.992188 302.09375 225.566406 297.367188 223.625 293.480469 L 215.210938 276.660156 C 213.269531 272.773438 208.539062 271.199219 204.652344 273.144531 C 200.765625 275.085938 199.1875 279.8125 201.132812 283.699219 Z M 209.542969 300.519531 " fill-opacity="1" fill-rule="nonzero"/><path fill="#000000" d="M 339.246094 432.925781 L 322.421875 441.335938 C 318.53125 443.277344 316.957031 448.003906 318.902344 451.890625 C 320.28125 454.648438 323.058594 456.242188 325.945312 456.242188 C 327.128906 456.242188 328.332031 455.972656 329.460938 455.410156 L 346.285156 447 C 350.171875 445.058594 351.75 440.332031 349.804688 436.445312 C 347.859375 432.558594 343.132812 430.980469 339.246094 432.925781 Z M 339.246094 432.925781 " fill-opacity="1" fill-rule="nonzero"/><path fill="#000000" d="M 348.328125 114.835938 L 339.917969 106.425781 C 336.84375 103.351562 331.863281 103.351562 328.789062 106.425781 C 325.714844 109.496094 325.714844 114.476562 328.789062 117.550781 L 337.199219 125.960938 C 338.738281 127.496094 340.75 128.265625 342.765625 128.265625 C 344.78125 128.265625 346.792969 127.496094 348.332031 125.960938 C 351.402344 122.890625 351.402344 117.910156 348.328125 114.835938 Z M 348.328125 114.835938 " fill-opacity="1" fill-rule="nonzero"/><path fill="#000000" d="M 311.964844 299.84375 C 308.890625 302.917969 308.890625 307.898438 311.964844 310.972656 L 320.375 319.382812 C 321.910156 320.917969 323.925781 321.6875 325.941406 321.6875 C 327.953125 321.6875 329.96875 320.917969 331.503906 319.382812 C 334.578125 316.308594 334.578125 311.328125 331.503906 308.253906 L 323.09375 299.84375 C 320.019531 296.773438 315.035156 296.773438 311.964844 299.84375 Z M 311.964844 299.84375 " fill-opacity="1" fill-rule="nonzero"/><path fill="#000000" d="M 410.601562 482.011719 L 410.601562 490.421875 C 410.601562 494.765625 414.125 498.289062 418.472656 498.289062 C 422.820312 498.289062 426.34375 494.765625 426.34375 490.421875 L 426.34375 482.011719 C 426.34375 477.664062 422.820312 474.144531 418.472656 474.144531 C 414.125 474.144531 410.601562 477.664062 410.601562 482.011719 Z M 410.601562 482.011719 " fill-opacity="1" fill-rule="nonzero"/><path fill="#000000" d="M 373.566406 176.417969 L 381.976562 168.011719 C 385.050781 164.9375 385.050781 159.953125 381.976562 156.882812 C 378.902344 153.808594 373.921875 153.808594 370.847656 156.882812 L 362.433594 165.292969 C 359.363281 168.367188 359.363281 173.347656 362.433594 176.417969 C 363.972656 177.957031 365.988281 178.722656 368 178.722656 C 370.015625 178.722656 372.027344 177.957031 373.566406 176.417969 Z M 373.566406 176.417969 " fill-opacity="1" fill-rule="nonzero"/><path fill="#000000" d="M 504.003906 145.667969 L 525.371094 153.679688 C 529.121094 155.085938 533.058594 155.78125 536.988281 155.78125 C 542.296875 155.78125 547.589844 154.507812 552.382812 151.992188 C 560.726562 147.609375 566.824219 139.855469 569.109375 130.714844 L 576.726562 100.261719 C 579.652344 88.566406 576.191406 76.617188 567.46875 68.292969 C 558.746094 59.96875 546.644531 57.066406 535.09375 60.53125 L 508.527344 68.5 C 496.527344 72.097656 487.441406 82.40625 485.382812 94.761719 L 482.96875 109.238281 C 480.375 124.804688 489.222656 140.125 504.003906 145.667969 Z M 498.496094 111.824219 L 500.910156 97.347656 C 501.992188 90.867188 506.757812 85.460938 513.050781 83.574219 L 539.617188 75.605469 C 541.300781 75.101562 543.007812 74.851562 544.691406 74.851562 C 549.066406 74.851562 553.296875 76.523438 556.601562 79.675781 C 561.175781 84.042969 562.988281 90.308594 561.457031 96.445312 L 553.839844 126.898438 C 552.625 131.765625 549.507812 135.726562 545.066406 138.058594 C 540.625 140.390625 535.59375 140.707031 530.894531 138.945312 L 509.53125 130.933594 C 501.777344 128.027344 497.136719 119.992188 498.496094 111.824219 Z M 498.496094 111.824219 " fill-opacity="1" fill-rule="nonzero"/><path fill="#000000" d="M 564.621094 185.714844 C 552.941406 191.550781 547.824219 205.523438 552.964844 217.523438 L 561.140625 236.585938 C 564.550781 244.542969 571.703125 250.039062 580.269531 251.292969 C 581.488281 251.46875 582.703125 251.554688 583.90625 251.554688 C 591.175781 251.554688 598.050781 248.371094 602.808594 242.667969 L 615.957031 226.890625 C 620.332031 221.640625 622.304688 215.011719 621.511719 208.222656 C 620.71875 201.4375 617.273438 195.4375 611.800781 191.339844 L 600.640625 182.96875 C 593.109375 177.320312 583.199219 176.429688 574.777344 180.636719 Z M 581.820312 194.710938 C 583.097656 194.074219 584.46875 193.757812 585.832031 193.757812 C 587.726562 193.757812 589.609375 194.367188 591.195312 195.558594 L 602.359375 203.925781 C 604.339844 205.414062 605.59375 207.589844 605.878906 210.050781 C 606.164062 212.511719 605.449219 214.914062 603.863281 216.816406 L 590.714844 232.59375 C 588.675781 235.039062 585.695312 236.179688 582.542969 235.71875 C 579.390625 235.257812 576.863281 233.316406 575.605469 230.386719 L 567.433594 211.320312 C 565.566406 206.972656 567.425781 201.90625 571.660156 199.789062 Z M 581.820312 194.710938 " fill-opacity="1" fill-rule="nonzero"/><g clip-path="url(#73880b9ef0)"><path fill="#000000" d="M 628.773438 161.902344 C 642.390625 161.902344 653.464844 150.828125 653.464844 137.21875 C 653.464844 123.605469 642.386719 112.53125 628.773438 112.53125 C 615.15625 112.53125 604.078125 123.605469 604.078125 137.21875 C 604.078125 150.828125 615.15625 161.902344 628.773438 161.902344 Z M 628.773438 128.265625 C 633.710938 128.265625 637.726562 132.28125 637.726562 137.21875 C 637.726562 142.152344 633.707031 146.167969 628.773438 146.167969 C 623.835938 146.167969 619.820312 142.152344 619.820312 137.21875 C 619.820312 132.28125 623.835938 128.265625 628.773438 128.265625 Z M 628.773438 128.265625 " fill-opacity="1" fill-rule="nonzero"/></g><path fill="#000000" d="M 631.191406 313.566406 C 627.601562 314.09375 623.957031 314.359375 620.359375 314.359375 C 587.125 314.359375 557.964844 293.105469 547.800781 261.472656 C 545.019531 252.824219 537.898438 246.425781 529.21875 244.773438 C 469.609375 233.429688 426.34375 181.121094 426.34375 120.394531 C 426.34375 95.320312 433.6875 71.0625 447.585938 50.242188 C 450.636719 45.675781 451.207031 39.945312 449.117188 34.90625 C 447.023438 29.863281 442.546875 26.214844 437.144531 25.144531 C 410.371094 19.84375 382.894531 18.648438 355.492188 21.601562 C 300.652344 27.503906 249.535156 50.117188 207.671875 87 C 204.410156 89.871094 204.097656 94.84375 206.96875 98.105469 C 209.84375 101.363281 214.816406 101.679688 218.078125 98.804688 C 257.488281 64.085938 305.585938 42.800781 357.175781 37.25 C 383 34.46875 408.875 35.589844 434.085938 40.582031 C 434.273438 40.621094 434.472656 40.691406 434.578125 40.941406 C 434.675781 41.179688 434.597656 41.355469 434.492188 41.507812 C 418.863281 64.921875 410.601562 92.203125 410.601562 120.398438 C 410.601562 188.667969 459.25 247.476562 526.277344 260.234375 C 529.292969 260.808594 531.796875 263.128906 532.8125 266.285156 C 545.078125 304.453125 580.261719 330.097656 620.359375 330.097656 C 624.71875 330.097656 629.132812 329.773438 633.480469 329.132812 C 634.058594 329.046875 634.355469 329.390625 634.367188 329.476562 C 626.78125 376.121094 606.167969 419.664062 574.757812 455.402344 C 571.886719 458.664062 572.210938 463.636719 575.476562 466.503906 C 576.96875 467.816406 578.824219 468.464844 580.667969 468.464844 C 582.855469 468.464844 585.027344 467.558594 586.582031 465.789062 C 619.945312 427.828125 641.84375 381.566406 649.90625 332.003906 C 650.726562 326.964844 649.132812 321.980469 645.539062 318.332031 C 641.835938 314.570312 636.472656 312.789062 631.191406 313.566406 Z M 631.191406 313.566406 " fill-opacity="1" fill-rule="nonzero"/><g clip-path="url(#e40ceed029)"><path fill="#000000" d="M 551.6875 478.480469 C 505.539062 519.066406 446.277344 541.417969 384.824219 541.417969 C 349.398438 541.417969 315.136719 534.242188 282.992188 520.089844 C 251.933594 506.414062 224.320312 486.917969 200.917969 462.140625 C 177.550781 437.40625 159.695312 408.789062 147.84375 377.082031 C 135.519531 344.109375 130.308594 309.324219 132.351562 273.683594 C 135.535156 218.128906 157.789062 164.226562 195.007812 121.898438 C 197.878906 118.632812 197.558594 113.664062 194.292969 110.792969 C 191.027344 107.925781 186.054688 108.242188 183.1875 111.507812 C 143.65625 156.460938 120.019531 213.738281 116.636719 272.785156 C 114.464844 310.617188 120.003906 347.5625 133.097656 382.589844 C 145.691406 416.273438 164.65625 446.675781 189.472656 472.945312 C 214.328125 499.257812 243.660156 519.964844 276.648438 534.492188 C 310.804688 549.53125 347.203125 557.15625 384.824219 557.15625 C 450.109375 557.15625 513.058594 533.410156 562.082031 490.292969 C 565.347656 487.425781 565.664062 482.453125 562.792969 479.191406 C 559.921875 475.929688 554.949219 475.609375 551.6875 478.480469 Z M 551.6875 478.480469 " fill-opacity="1" fill-rule="nonzero"/></g></svg>