<svg width="596" height="278" viewBox="0 0 596 278" fill="none" xmlns="http://www.w3.org/2000/svg">
<path d="M46 193H25V53.5H150.5M150.5 53.5V69.5L167 93.5H224V53.5M150.5 53.5V38M224 38L219.831 26.3267C217.666 20.2635 213.644 15.0368 208.339 11.3893V11.3893C203.233 7.87912 197.183 6 190.987 6H186.501C182.532 6 178.595 6.70753 174.875 8.08938V8.08938C167.224 10.931 160.879 16.4761 157.039 23.6771L155 27.5L150.5 38M224 38V53.5M224 38H261.086C264.889 38 268.551 39.4321 271.345 42.011V42.011C272.769 43.3248 273.926 44.8997 274.755 46.6501L275.583 48.3985C277.175 51.7576 278 55.428 278 59.1449V209.5M150.5 38H68H25V38C14.5066 38 6 46.5066 6 57V209.5M119 190.5V177.5H60.5V193H260.5V53.5H224M6 209.5H278M6 209.5V221.277C6 225.934 7.69002 230.431 10.7561 233.936V233.936C14.4063 238.107 19.6795 240.5 25.2226 240.5H113M278 209.5V221.098C278 225.893 276.389 230.55 273.427 234.321V234.321C269.369 239.485 263.165 242.5 256.598 242.5H174M113 240.5L174 242.5M113 240.5V240.5C113 250.75 111.157 260.916 107.558 270.513L107 272M174 242.5L174.164 243.383C175.715 251.76 178.33 259.904 181.946 267.618L184 272H220.5H107M64.5 272H107M167 113.5H224V131.32C224 136.034 222.835 140.674 220.61 144.829V144.829C217.93 149.83 213.825 153.921 208.815 156.583L204.515 158.867C201.879 160.268 198.939 161 195.954 161V161C192.71 161 189.525 160.135 186.726 158.495L182.685 156.126C178.613 153.739 175.125 150.473 172.475 146.568V146.568C168.907 141.311 167 135.103 167 128.75V113.5ZM119 161L133.5 138.5V121V109.466C133.5 105.511 132.904 101.579 131.732 97.802L131.263 96.2927C129.775 91.4958 127.198 87.1077 123.734 83.4706L123.598 83.3276C120.566 80.1441 116.904 77.6268 112.846 75.9359V75.9359C108.987 74.3279 104.847 73.5 100.667 73.5H96.8148C92.6433 73.5 88.51 74.296 84.6369 75.8453V75.8453C80.2636 77.5945 76.3186 80.2655 73.0703 83.6762L70.7207 86.1433C68.9099 88.0446 67.2568 90.0901 65.7777 92.2594L60.5 100V161H119Z" stroke="#636363" stroke-width="12" stroke-linejoin="round"/>
<path d="M411 140.177L412.704 127.007C413.896 117.803 416.942 108.937 421.66 100.945V100.945C424.68 95.8293 428.352 91.1281 432.583 86.9588L440.792 78.8692C445.856 73.879 451.692 69.739 458.076 66.6089V66.6089C467.129 62.1694 477.079 59.8612 487.163 59.8612H497.575H516.933C523.495 59.8612 530.027 60.7631 536.344 62.5417L538.059 63.0245C545.327 65.0707 552.159 68.4278 558.22 72.9306L559.842 74.1356C566.593 79.1515 572.067 85.6882 575.819 93.2154V93.2154C578.239 98.0706 579.907 103.266 580.766 108.623L582.258 117.938C583.51 125.749 586.131 133.277 590 140.177V140.177" stroke="#636363" stroke-width="12" stroke-linecap="round" stroke-linejoin="round"/>
<path d="M416.85 182.943L423.564 173.273C429.095 165.307 432.059 155.842 432.059 146.144V146.144C432.059 142.182 432.554 138.235 433.533 134.395L435.801 125.498C437.197 120.021 439.463 114.804 442.513 110.046V110.046C445.661 105.134 449.602 100.777 454.174 97.1537L457.798 94.2824L459.833 92.7472C468.477 86.2256 478.619 81.9748 489.33 80.3832V80.3832C492.483 79.9147 495.666 79.6795 498.853 79.6795H510.323C513.518 79.6795 516.708 79.9443 519.86 80.4712L522.81 80.9643C530.058 82.176 536.907 85.1198 542.774 89.5457V89.5457C546.929 92.6804 550.517 96.5027 553.384 100.847L554.158 102.02C558.501 108.603 561.344 116.059 562.485 123.862L564.262 136.005L566.368 146.018C567.301 150.457 567.771 154.98 567.771 159.515V159.515C567.771 170.108 570.337 180.543 575.25 189.928L575.961 191.287L581.811 203.804" stroke="#636363" stroke-width="12" stroke-linecap="round" stroke-linejoin="round"/>
<path d="M427.379 211.105L437.908 195.459L438.066 195.249C444.165 187.092 448.982 178.053 452.351 168.442L453.118 166.254V166.254C456.982 156.607 458.967 146.311 458.967 135.92V134.962V132.977C458.967 125.048 462.755 117.596 469.161 112.923V112.923C470.937 111.628 472.877 110.574 474.93 109.789L478.709 108.345C484.994 105.944 491.665 104.713 498.393 104.713H500.295C504.704 104.713 509.096 105.263 513.369 106.352L521.75 108.487C528.061 110.094 533.63 113.816 537.53 119.032V119.032C541.213 123.956 543.203 129.94 543.203 136.089V140.177V144.935C543.203 153.548 544.315 162.125 546.513 170.453L547.882 175.641L554.902 195.459L558.412 211.105L558.645 211.73C560.816 217.535 563.896 222.957 567.771 227.794V227.794" stroke="#636363" stroke-width="12" stroke-linecap="round" stroke-linejoin="round"/>
<path d="M439.079 228.837L450.769 215.672C457.751 207.809 463.449 198.894 467.653 189.256L473.328 176.245C476.203 169.655 477.686 162.543 477.686 155.353V153.309C477.686 150.82 477.961 148.339 478.506 145.911L480.028 139.129C480.782 135.763 482.698 132.771 485.439 130.677V130.677C487.999 128.72 491.131 127.66 494.353 127.66H502.953C506.312 127.66 509.595 128.657 512.387 130.524V130.524C515.669 132.718 518.083 135.988 519.214 139.77L520.791 145.041C521.688 148.041 522.144 151.155 522.144 154.286V169.383V169.383C522.144 180.995 519.053 192.397 513.188 202.419L508.105 211.105L495.235 228.837L481.196 246.569L473.007 255.957" stroke="#636363" stroke-width="12" stroke-linecap="round" stroke-linejoin="round"/>
<path d="M455.458 243.44L471.974 222.825C476.548 217.115 480.482 210.921 483.705 204.353L487.046 197.546L491.387 188.146C493.947 182.603 495.994 176.836 497.503 170.919L500.054 160.909C500.739 158.224 501.085 155.464 501.085 152.694V152.694" stroke="#636363" stroke-width="12" stroke-linecap="round" stroke-linejoin="round"/>
<path d="M503.425 257L517.464 234.053L523.667 224.501C528.095 217.682 531.674 210.349 534.327 202.663L535.013 200.675L539.108 218.407L543.346 235.2C544.025 237.892 545.165 240.445 546.715 242.748V242.748C547.492 243.903 548.367 244.988 549.332 245.991L554.902 251.785" stroke="#636363" stroke-width="12" stroke-linecap="round"/>
<path d="M420.359 70.2919L430.665 60.0229C436.965 53.7455 444.658 49.0442 453.118 46.3014V46.3014L460.143 43.9939C470.214 40.6857 480.748 39 491.349 39H497.575H508.481C519.082 39 529.616 40.6857 539.687 43.9939L546.712 46.3014L554.502 49.5911C564.063 53.6288 572.894 59.213 580.64 66.1196V66.1196L585.32 70.2919" stroke="#636363" stroke-width="12" stroke-linecap="round" stroke-linejoin="round"/>
<rect x="317" y="103" width="60" height="14" fill="#D9D9D9"/>
<rect x="317" y="127" width="60" height="14" fill="#D9D9D9"/>
</svg>
