<svg xmlns="http://www.w3.org/2000/svg" xmlns:xlink="http://www.w3.org/1999/xlink" width="1024" zoomAndPan="magnify" viewBox="0 0 768 576" height="768" preserveAspectRatio="xMidYMid meet" version="1.0"><defs><clipPath id="e8ee3edab8"><path d="M 259 13.089844 L 506 13.089844 L 506 207 L 259 207 Z M 259 13.089844 " clip-rule="nonzero"/></clipPath><clipPath id="0b76e5ca7c"><path d="M 194.277344 167 L 571 167 L 571 518 L 194.277344 518 Z M 194.277344 167 " clip-rule="nonzero"/></clipPath></defs><rect x="-76.8" width="921.6" fill="#ffffff" y="-57.6" height="691.2" fill-opacity="1"/><rect x="-76.8" width="921.6" fill="#ffffff" y="-57.6" height="691.2" fill-opacity="1"/><rect x="-76.8" width="921.6" fill="#ffffff" y="-57.6" height="691.2" fill-opacity="1"/><g clip-path="url(#e8ee3edab8)"><path fill="#ffc44d" d="M 259.628906 121.964844 C 259.628906 61.121094 308.941406 11.792969 369.773438 11.792969 L 395.691406 11.792969 C 456.523438 11.792969 505.839844 61.121094 505.839844 121.964844 L 505.839844 186.773438 C 505.839844 197.511719 497.136719 206.214844 486.398438 206.214844 C 475.664062 206.214844 466.960938 197.511719 466.960938 186.773438 L 466.960938 121.964844 C 466.960938 82.59375 435.054688 50.675781 395.691406 50.675781 L 369.773438 50.675781 C 330.414062 50.675781 298.503906 82.59375 298.503906 121.964844 L 298.503906 186.773438 C 298.503906 197.511719 289.800781 206.214844 279.066406 206.214844 C 268.332031 206.214844 259.628906 197.511719 259.628906 186.773438 Z M 259.628906 121.964844 " fill-opacity="1" fill-rule="evenodd"/></g><g clip-path="url(#0b76e5ca7c)"><path fill="#5e17eb" d="M 253.148438 167.332031 C 220.941406 167.332031 194.835938 193.445312 194.835938 225.660156 L 194.835938 458.964844 C 194.835938 491.179688 220.941406 517.292969 253.148438 517.292969 L 512.316406 517.292969 C 544.519531 517.292969 570.628906 491.179688 570.628906 458.964844 L 570.628906 225.660156 C 570.628906 193.445312 544.519531 167.332031 512.316406 167.332031 Z M 253.148438 167.332031 " fill-opacity="1" fill-rule="nonzero"/></g><path fill="#ffc44d" d="M 382.734375 245.101562 C 350.527344 245.101562 324.421875 271.214844 324.421875 303.425781 C 324.421875 335.640625 350.527344 361.753906 382.734375 361.753906 C 414.9375 361.753906 441.046875 335.640625 441.046875 303.425781 C 441.046875 271.214844 414.9375 245.101562 382.734375 245.101562 Z M 382.734375 245.101562 " fill-opacity="1" fill-rule="nonzero"/><path fill="#ffc44d" d="M 382.734375 322.871094 C 329.058594 322.871094 285.542969 366.390625 285.542969 420.082031 C 285.542969 430.820312 294.246094 439.523438 304.980469 439.523438 L 460.484375 439.523438 C 471.21875 439.523438 479.921875 430.820312 479.921875 420.082031 C 479.921875 366.390625 436.410156 322.871094 382.734375 322.871094 Z M 382.734375 322.871094 " fill-opacity="1" fill-rule="nonzero"/></svg>